<svg xmlns="http://www.w3.org/2000/svg" xmlns:xlink="http://www.w3.org/1999/xlink" preserveAspectRatio="xMidYMid" width="98.724" height="116.326" viewBox="0 0 48.375 57">
  <defs>
    <style>
      .cls-1 {
        fill: #e0e0e0;
        fill-rule: evenodd;
      }
    </style>
  </defs>
  <path d="M46.092,56.990 C40.459,56.977 26.299,56.957 26.299,56.957 L2.000,57.000 C1.518,57.000 -0.000,55.479 -0.000,55.000 L-0.000,22.000 C-0.000,21.521 1.518,20.000 2.000,20.000 L14.000,20.000 L14.000,2.000 C14.000,1.521 15.446,-0.000 15.928,-0.000 L46.000,-0.000 C46.482,-0.000 48.000,1.521 48.000,2.000 L48.000,55.000 C48.000,56.055 47.034,56.934 46.092,56.990 ZM2.000,22.000 L2.000,55.000 L23.000,55.000 L23.000,22.000 L2.000,22.000 ZM46.000,2.000 L16.000,2.000 L16.000,20.000 L23.000,20.000 C23.482,20.000 25.000,21.521 25.000,22.000 L25.000,55.000 L46.000,55.000 L46.000,2.000 ZM23.976,11.013 L20.021,11.013 C19.450,11.013 18.987,10.575 18.987,10.034 L18.987,5.966 C18.987,5.426 19.450,4.988 20.021,4.988 L23.976,4.988 C24.547,4.988 25.010,5.426 25.010,5.966 L25.010,10.034 C25.010,10.575 24.547,11.013 23.976,11.013 ZM22.942,6.945 L21.055,6.945 L21.055,9.056 L22.942,9.056 L22.942,6.945 ZM29.021,4.988 L32.976,4.988 C33.547,4.988 34.010,5.426 34.010,5.966 L34.010,10.034 C34.010,10.575 33.547,11.013 32.976,11.013 L29.021,11.013 C28.450,11.013 27.987,10.575 27.987,10.034 L27.987,5.966 C27.987,5.426 28.450,4.988 29.021,4.988 ZM30.055,9.056 L31.942,9.056 L31.942,6.945 L30.055,6.945 L30.055,9.056 ZM29.021,13.988 L32.976,13.988 C33.547,13.988 34.010,14.426 34.010,14.967 L34.010,19.035 C34.010,19.575 33.547,20.013 32.976,20.013 L29.021,20.013 C28.450,20.013 27.987,19.575 27.987,19.034 L27.987,14.967 C27.987,14.426 28.450,13.988 29.021,13.988 ZM30.055,18.056 L31.942,18.056 L31.942,15.945 L30.055,15.945 L30.055,18.056 ZM29.021,22.988 L32.976,22.988 C33.547,22.988 34.010,23.426 34.010,23.967 L34.010,28.035 C34.010,28.575 33.547,29.013 32.976,29.013 L29.021,29.013 C28.450,29.013 27.987,28.575 27.987,28.034 L27.987,23.967 C27.987,23.426 28.450,22.988 29.021,22.988 ZM30.055,27.056 L31.942,27.056 L31.942,24.945 L30.055,24.945 L30.055,27.056 ZM29.021,31.988 L32.976,31.988 C33.547,31.988 34.010,32.426 34.010,32.967 L34.010,37.035 C34.010,37.575 33.547,38.013 32.976,38.013 L29.021,38.013 C28.450,38.013 27.987,37.575 27.987,37.034 L27.987,32.967 C27.987,32.426 28.450,31.988 29.021,31.988 ZM30.055,36.056 L31.942,36.056 L31.942,33.945 L30.055,33.945 L30.055,36.056 ZM29.021,40.988 L32.976,40.988 C33.547,40.988 34.010,41.426 34.010,41.967 L34.010,46.035 C34.010,46.575 33.547,47.013 32.976,47.013 L29.021,47.013 C28.450,47.013 27.987,46.575 27.987,46.034 L27.987,41.967 C27.987,41.426 28.450,40.988 29.021,40.988 ZM30.055,45.055 L31.942,45.055 L31.942,42.945 L30.055,42.945 L30.055,45.055 ZM38.021,4.988 L41.976,4.988 C42.547,4.988 43.010,5.426 43.010,5.966 L43.010,10.034 C43.010,10.575 42.547,11.013 41.976,11.013 L38.021,11.013 C37.450,11.013 36.987,10.575 36.987,10.034 L36.987,5.966 C36.987,5.426 37.450,4.988 38.021,4.988 ZM39.055,9.056 L40.942,9.056 L40.942,6.945 L39.055,6.945 L39.055,9.056 ZM38.021,13.988 L41.976,13.988 C42.547,13.988 43.010,14.426 43.010,14.967 L43.010,19.035 C43.010,19.575 42.547,20.013 41.976,20.013 L38.021,20.013 C37.450,20.013 36.987,19.575 36.987,19.034 L36.987,14.967 C36.987,14.426 37.450,13.988 38.021,13.988 ZM39.055,18.056 L40.942,18.056 L40.942,15.945 L39.055,15.945 L39.055,18.056 ZM38.021,22.988 L41.976,22.988 C42.547,22.988 43.010,23.426 43.010,23.967 L43.010,28.035 C43.010,28.575 42.547,29.013 41.976,29.013 L38.021,29.013 C37.450,29.013 36.987,28.575 36.987,28.034 L36.987,23.967 C36.987,23.426 37.450,22.988 38.021,22.988 ZM39.055,27.056 L40.942,27.056 L40.942,24.945 L39.055,24.945 L39.055,27.056 ZM38.021,31.988 L41.976,31.988 C42.547,31.988 43.010,32.426 43.010,32.967 L43.010,37.035 C43.010,37.575 42.547,38.013 41.976,38.013 L38.021,38.013 C37.450,38.013 36.987,37.575 36.987,37.034 L36.987,32.967 C36.987,32.426 37.450,31.988 38.021,31.988 ZM39.055,36.056 L40.942,36.056 L40.942,33.945 L39.055,33.945 L39.055,36.056 ZM38.021,40.988 L41.976,40.988 C42.547,40.988 43.010,41.426 43.010,41.967 L43.010,46.035 C43.010,46.575 42.547,47.013 41.976,47.013 L38.021,47.013 C37.450,47.013 36.987,46.575 36.987,46.034 L36.987,41.967 C36.987,41.426 37.450,40.988 38.021,40.988 ZM39.055,45.055 L40.942,45.055 L40.942,42.945 L39.055,42.945 L39.055,45.055 ZM19.000,47.000 L15.000,47.000 C14.499,47.000 14.000,46.502 14.000,46.000 L14.000,42.000 C14.000,41.498 14.499,41.000 15.000,41.000 L19.000,41.000 C19.501,41.000 20.000,41.498 20.000,42.000 L20.000,46.000 C20.000,46.502 19.501,47.000 19.000,47.000 ZM18.000,43.000 L16.000,43.000 L16.000,45.000 L18.000,45.000 L18.000,43.000 ZM19.000,39.000 L15.000,39.000 C14.499,39.000 14.000,38.503 14.000,38.000 L14.000,34.000 C14.000,33.498 14.499,33.000 15.000,33.000 L19.000,33.000 C19.501,33.000 20.000,33.498 20.000,34.000 L20.000,38.000 C20.000,38.502 19.501,39.000 19.000,39.000 ZM18.000,35.000 L16.000,35.000 L16.000,37.000 L18.000,37.000 L18.000,35.000 ZM19.000,31.000 L15.000,31.000 C14.499,31.000 14.000,30.502 14.000,30.000 L14.000,26.000 C14.000,25.498 14.499,25.000 15.000,25.000 L19.000,25.000 C19.501,25.000 20.000,25.498 20.000,26.000 L20.000,30.000 C20.000,30.502 19.501,31.000 19.000,31.000 ZM18.000,27.000 L16.000,27.000 L16.000,29.000 L18.000,29.000 L18.000,27.000 ZM10.000,47.000 L6.000,47.000 C5.499,47.000 5.000,46.502 5.000,46.000 L5.000,42.000 C5.000,41.498 5.499,41.000 6.000,41.000 L10.000,41.000 C10.501,41.000 11.000,41.498 11.000,42.000 L11.000,46.000 C11.000,46.502 10.501,47.000 10.000,47.000 ZM9.000,43.000 L7.000,43.000 L7.000,45.000 L9.000,45.000 L9.000,43.000 ZM10.000,39.000 L6.000,39.000 C5.499,39.000 5.000,38.503 5.000,38.000 L5.000,34.000 C5.000,33.498 5.499,33.000 6.000,33.000 L10.000,33.000 C10.501,33.000 11.000,33.498 11.000,34.000 L11.000,38.000 C11.000,38.502 10.501,39.000 10.000,39.000 ZM9.000,35.000 L7.000,35.000 L7.000,37.000 L9.000,37.000 L9.000,35.000 ZM10.000,31.000 L6.000,31.000 C5.499,31.000 5.000,30.502 5.000,30.000 L5.000,26.000 C5.000,25.498 5.499,25.000 6.000,25.000 L10.000,25.000 C10.501,25.000 11.000,25.498 11.000,26.000 L11.000,30.000 C11.000,30.502 10.501,31.000 10.000,31.000 ZM9.000,27.000 L7.000,27.000 L7.000,29.000 L9.000,29.000 L9.000,27.000 ZM46.000,57.000 C46.031,57.000 46.062,56.991 46.092,56.990 C48.748,56.996 49.516,57.000 46.000,57.000 Z" class="cls-1"/>
</svg>
