<svg version="1.1" id="Layer_1" xmlns="http://www.w3.org/2000/svg" x="0" y="0" viewBox="0 0 17 16.8" style="enable-background:new 0 0 17 16.8" xml:space="preserve"><style>.st0{fill-rule:evenodd;clip-rule:evenodd;fill:#fff}</style><circle class="st0" cx="13" cy="4" r=".8"/><path class="st0" d="M12.1 0H4.9C2.2 0 0 2.2 0 4.8V12c0 2.7 2.2 4.8 4.9 4.8h7.2c2.7 0 4.9-2.2 4.9-4.8V4.8C17 2.2 14.8 0 12.1 0zm3.5 11.5c0 2.2-1.8 4.1-4.1 4.1h-6c-2.2 0-4.1-1.8-4.1-4.1v-6c0-2.2 1.8-4.1 4.1-4.1h6c2.3 0 4.1 1.8 4.1 4.1v6z"/><path class="st0" d="M8.4 3.9C5.8 3.9 3.7 6 3.7 8.6s2.1 4.7 4.7 4.7 4.7-2.1 4.7-4.7c.1-2.6-2-4.7-4.7-4.7zm0 7.9c-1.7 0-3.1-1.4-3.1-3.1 0-1.7 1.4-3.1 3.1-3.1 1.7 0 3.1 1.4 3.1 3.1.1 1.6-1.3 3.1-3.1 3.1z"/></svg>