<svg xmlns="http://www.w3.org/2000/svg" width="500" height="512" fill="none" xmlns:v="https://vecta.io/nano"><path d="M499.3 255.69l-.01 195.88c-.02 26.77-14.3 48.03-37.87 56.64-6.47 2.36-13.16 3.59-20.04 3.59-127.59.01-255.18.05-382.76-.02-32.7-.02-58.31-25.67-58.33-58.39V58.13C.3 25.64 25.96.04 58.31.03h382.76c31.96.01 57.08 23.79 57.98 55.79.7 24.97.24 49.96.25 74.95v124.92zm-390.25-.24l-.18 120.93c-.18 14.4 9.18 20.58 20.5 20.53l192.39-.14c1.5 0 3.01.07 4.5-.06 8.77-.72 15.57-6.97 15.74-15.2.28-13.82.1-27.65.11-41.48 0-3.32-1.68-5.57-4.92-5.85-3.56-.31-5.48 1.97-5.99 5.37-.19 1.31-.08 2.66-.08 3.99l-.01 33.48c-.01 7.26-1.46 8.73-8.76 8.73H128.96c-7.31 0-8.89-1.55-8.89-8.67V134.71c0-7.36 1.34-8.69 8.73-8.69h193.39c7.85 0 8.93 1.08 8.93 8.94v51.47l.01 3.5c.05 3.8 1.54 6.81 5.65 6.79 4.18-.01 5.39-3.03 5.38-6.89l-.03-56.47c-.02-12.07-6.39-18.34-18.6-18.35-65.13-.01-130.26-.01-195.39 0-12.64 0-19.06 6.39-19.06 18.98l-.03 121.46zM272.94 358.9c-.27 2.92-.32 5.76 2.78 7.4 3.08 1.63 5.38-.1 7.71-1.82 8.44-6.23 16.75-12.65 25.39-18.58 6.19-4.25 10.73-9.52 14.47-16.07l63.34-109.88c6-10.39 5.26-20.83-1.92-28.68-10.87-11.89-29.21-9.75-37.6 4.69l-67.46 116.72c-1.09 1.89-2.04 3.82-2.28 6.02l-4.43 40.2zm-47.37-214.03c-27.98.03-50.55 22.55-50.55 50.43 0 28.03 22.88 50.79 50.95 50.69 27.78-.1 50.21-22.84 50.16-50.85-.03-28.02-22.44-50.3-50.56-50.27zm-9.61 129.76l37.97-.01c2.6 0 4.97-.53 6.32-3.14 1.03-1.99.86-3.87-.42-5.64-1.66-2.28-4.11-2.55-6.69-2.55h-73.45c-4.02 0-7.51.72-7.85 5.6-.26 3.73 2.43 5.71 7.64 5.73l36.48.01zm.59 19.57c-12.3 0-24.61.02-36.91-.01-4.02-.01-7.66.74-7.66 5.67 0 5.02 3.75 5.56 7.71 5.56l73.33.02c4.1.01 7.74-.88 7.73-5.63-.01-4.76-3.74-5.63-7.78-5.62l-36.42.01zm-.15 41.82h33.46c1 0 2-.05 3 .01 4.06.25 7.54-.56 7.94-5.39.3-3.52-2.77-5.61-7.85-5.62-24.47-.02-48.95-.02-73.42 0-5.14 0-7.86 2.05-7.59 5.76.34 4.69 3.65 5.28 7.49 5.26l36.97-.02zm24.1 19.92h-13.97c-3.73-.01-6.31 1.72-6.32 5.49-.01 3.79 2.59 5.51 6.3 5.51l27.94.01c3.77.01 6.31-1.79 6.32-5.5.01-3.72-2.54-5.54-6.3-5.52l-13.97.01zm-81.28-56.31c-.35-3.24-2.22-5.3-5.4-5.26-3.36.05-5.71 2.13-5.54 5.64.16 3.39 2.34 5.49 5.89 5.25 3.28-.23 4.88-2.35 5.05-5.63zm0-30.36c-.05-3.15-1.69-5.37-4.94-5.68-3.56-.35-5.8 1.83-5.99 5.24-.18 3.22 1.84 5.42 5.15 5.57 3.26.16 5.28-1.62 5.78-5.13zm-5.52 66.77c3.37-.21 5.36-1.91 5.44-5.29.08-3.37-1.92-5.45-5.13-5.6-3.5-.15-5.75 2.05-5.73 5.53.01 3.23 2.13 5.09 5.42 5.36z" fill="#2d79d3"/><path d="M109.05 255.45V134.02c0-12.59 6.42-18.98 19.06-18.98H323.5c12.21 0 18.58 6.27 18.6 18.35l.03 56.47c.01 3.85-1.2 6.87-5.38 6.89-4.11.01-5.6-3-5.65-6.79l-.01-3.5v-51.47c0-7.86-1.08-8.93-8.93-8.94H128.77c-7.39 0-8.73 1.33-8.73 8.69v242.37c0 7.12 1.58 8.66 8.89 8.67h193.39c7.3 0 8.76-1.47 8.76-8.73l.01-33.48c0-1.33-.11-2.69.08-3.99.51-3.4 2.43-5.68 5.99-5.37 3.24.28 4.92 2.53 4.92 5.85l-.11 41.48c-.17 8.24-6.97 14.48-15.74 15.2-1.49.12-3 .06-4.5.06-64.13 0-128.26-.15-192.39.14-11.31.05-20.68-6.13-20.5-20.53l.21-120.96z" fill="#fcfdfe"/><path d="M272.94 358.9l4.42-40.2c.24-2.2 1.19-4.14 2.28-6.02l67.46-116.72c8.39-14.44 26.73-16.57 37.6-4.69 7.18 7.85 7.92 18.28 1.92 28.68l-63.34 109.88c-3.73 6.55-8.27 11.82-14.47 16.07-8.64 5.93-16.96 12.35-25.39 18.58-2.33 1.72-4.63 3.45-7.71 1.82-3.1-1.64-3.04-4.48-2.77-7.4zm37.71-31.72c1.63.04 1.94-1.22 2.5-2.18l52.5-90.62c1.14-1.96 1.13-3.08-1.1-4.26-5.14-2.72-10.25-5.53-15.13-8.69-2.79-1.81-3.85-.95-5.28 1.55l-51.86 89.83c-1.29 2.22-1.27 3.32 1.12 4.6 5.27 2.83 10.38 5.95 15.57 8.94.57.33 1.18.58 1.68.83zm57.09-132.43c-6.45-.07-13.27 5.41-14.94 13.83-.88 4.41 5.29 4.12 7.76 6.58.68.68 1.7 1.02 2.56 1.51 10.33 5.89 11.78 5.35 15.79-5.91 2.77-7.79-2.89-15.91-11.17-16.01zm-82.62 154.71l16.1-11.67c2.21-1.56 1.43-2.48-.4-3.51L290 328.05c-1.86-1.11-2.65-.67-2.85 1.48l-2.03 19.93zm-59.55-204.59c28.11-.03 50.52 22.24 50.56 50.27.04 28.01-22.39 50.75-50.16 50.85-28.07.1-50.95-22.66-50.95-50.69 0-27.88 22.57-50.39 50.55-50.43zm-.43 11.02c-2.92-.18-6.35.35-9.76 1.22-24.77 6.36-37.16 36.06-24 57.8.63 1.04 1.02 5.13 3.87 1.76 3.48-4.12 7.42-7.62 12.18-10.15 1.63-.86 2.16-1.84 1.07-3.56-2.84-4.47-2.74-9.5-2.52-14.5.63-14.86 17.46-23.64 30.07-15.72 9.08 5.7 12.44 18 7.35 28.78-1.53 3.25-.95 4.5 2.01 5.95 3.77 1.84 6.97 4.66 9.44 8.01 2.59 3.52 3.65 2.09 5.29-.78 14.91-26.12-4.16-58.79-35-58.81zm-1.05 79.09c8.63 0 17.82-2.82 22.83-6.21 2.16-1.46 2.38-2.56.84-4.74-10.37-14.66-33.98-14.63-44.27.05-1.57 2.24-1.2 3.39.93 4.68 6.54 3.95 13.59 6.1 19.67 6.22zm10.51-43.33c.09-6.63-3.4-10.8-9.01-10.76-5.4.04-8.57 3.67-8.65 9.9-.08 6.88 3.08 11.01 8.53 11.12 5.33.1 9.05-4.07 9.13-10.26z" fill="#f9fbfd"/><path d="M215.96 274.64c-12.16 0-24.32.03-36.47-.01-5.21-.02-7.9-2-7.64-5.73.34-4.88 3.83-5.6 7.85-5.6h73.45c2.59 0 5.03.27 6.69 2.55 1.28 1.76 1.45 3.65.42 5.64-1.35 2.61-3.72 3.14-6.32 3.14l-37.98.01z" fill="#edf3fa"/><path d="M216.55 294.2l36.41-.02c4.04-.01 7.77.86 7.78 5.62.01 4.75-3.63 5.64-7.73 5.63l-73.33-.02c-3.96 0-7.72-.54-7.71-5.56 0-4.93 3.64-5.68 7.66-5.67l36.92.02z" fill="#f6f9fc"/><path d="M216.4 336.02c-12.32 0-24.64-.04-36.96.02-3.85.02-7.15-.57-7.49-5.26-.27-3.72 2.45-5.76 7.59-5.76h73.42c5.08 0 8.15 2.1 7.85 5.62-.41 4.83-3.89 5.64-7.94 5.39-1-.06-2-.01-3-.01H216.4zm24.1 19.92l13.97-.01c3.76-.02 6.31 1.79 6.3 5.52-.01 3.71-2.55 5.51-6.32 5.5l-27.94-.01c-3.71 0-6.31-1.72-6.3-5.51.01-3.77 2.59-5.5 6.32-5.49h13.97z" fill="#fbfcfd"/><path d="M159.22 299.63c-.16 3.28-1.77 5.4-5.06 5.62-3.55.24-5.72-1.86-5.89-5.25-.17-3.51 2.19-5.59 5.54-5.64 3.19-.03 5.06 2.03 5.41 5.27z" fill="#f2f6fc"/><path d="M159.22 269.27c-.5 3.5-2.52 5.29-5.78 5.13-3.31-.16-5.33-2.36-5.15-5.57.19-3.41 2.42-5.59 5.99-5.24 3.25.32 4.89 2.53 4.94 5.68zm-5.52 66.77c-3.29-.28-5.4-2.13-5.42-5.35-.02-3.47 2.23-5.68 5.73-5.53 3.21.14 5.21 2.23 5.13 5.6s-2.07 5.07-5.44 5.28z" fill="#f3f7fc"/><path d="M310.65 327.18l-1.68-.83-15.57-8.94c-2.39-1.28-2.4-2.38-1.12-4.6l51.86-89.83c1.43-2.49 2.49-3.36 5.28-1.55 4.87 3.16 9.99 5.97 15.13 8.69 2.23 1.18 2.24 2.3 1.1 4.26L313.15 325c-.56.96-.87 2.22-2.5 2.18z" fill="#307ad4"/><path d="M367.74 194.75c8.28.1 13.94 8.22 11.16 16.01-4.01 11.25-5.46 11.8-15.79 5.91-.86-.49-1.88-.83-2.56-1.51-2.47-2.46-8.64-2.16-7.76-6.58 1.68-8.42 8.5-13.9 14.95-13.83z" fill="#327cd4"/><path d="M285.12 349.46l2.03-19.92c.2-2.15.98-2.58 2.85-1.48l10.82 6.23c1.82 1.02 2.61 1.95.4 3.51l-16.1 11.66z" fill="#387fd5"/><path d="M225.14 155.89c30.84.03 49.91 32.69 35.01 58.82-1.64 2.87-2.7 4.3-5.29.78-2.47-3.36-5.67-6.17-9.44-8.01-2.96-1.45-3.54-2.7-2.01-5.95 5.08-10.78 1.73-23.07-7.35-28.78-12.62-7.92-29.44.86-30.07 15.72-.21 5.01-.31 10.04 2.52 14.5 1.09 1.71.56 2.69-1.07 3.56-4.76 2.53-8.7 6.04-12.18 10.15-2.85 3.37-3.24-.72-3.87-1.76-13.16-21.75-.77-51.45 24-57.8 3.39-.88 6.83-1.42 9.75-1.23zm-1.05 79.09c-6.08-.12-13.13-2.26-19.67-6.22-2.13-1.29-2.5-2.43-.93-4.68 10.29-14.67 33.89-14.7 44.27-.05 1.54 2.18 1.33 3.28-.84 4.74-5.02 3.38-14.21 6.21-22.83 6.21z" fill="#317bd4"/><path d="M234.6 191.65c-.09 6.19-3.8 10.36-9.12 10.26-5.45-.11-8.62-4.23-8.53-11.12.08-6.23 3.25-9.85 8.65-9.9 5.6-.04 9.1 4.13 9 10.76z" fill="#337cd4"/></svg>