<svg xmlns="http://www.w3.org/2000/svg" width="102" height="124" fill="none" xmlns:v="https://vecta.io/nano"><path d="M46.349 123.366l-.01-.49h8.01v.49h-8z" fill="#eefbee"/><path d="M54.359 122.886h-8.01c-10.46-.65-19.7-4.6-27.7-11.13-8.73-7.13-14.7-16.26-17.22-27.339-3.68-16.19-.23-30.82 10.07-43.87 5.39-6.83 12.34-11.49 20.19-14.95.97-.43 2.02-.78 3.14-.7-1.97 7.37-3.19 14.84-2.96 22.5-7.76 8.06-11.38 17.77-11.52 28.86-.02 1.17.36 2.12 1.5 2.64 1.12.51 2.04.17 2.99-.54l8.46-6.17c.64 2.19 2.1 2.84 4.33 2.77 4.56-.15 9.13-.05 13.7-.06l14.14.02c2.08.01 3.25-.92 3.39-3.04l8.57 6.42c.91.69 1.87 1.09 3 .52 1.2-.61 1.51-1.64 1.49-2.91-.04-2.41-.13-4.81-.61-7.19-1.67-8.13-4.87-15.46-10.97-21.31.23-7.65-.64-15.16-2.99-22.47 10.48 3.57 18.82 9.95 25.03 19.1 4.84 7.13 7.6 14.95 8.51 23.57 1.43 13.5-2.27 25.55-10.38 36.05-7.97 10.32-18.61 16.76-31.71 18.76-1.49.24-2.94.51-4.44.47zm-3.02-9.58c1.09.13 1.74-.55 2.15-1.37 3.03-5.97 6.36-11.83 8-18.39 1.68-6.74-3.18-12.92-10.15-13.04-7.05-.15-12.38 6.54-10.52 13.3 1.73 6.299 4.78 12.029 7.8 17.78.55 1.04 1.27 2 2.72 1.72z" fill="#d7f9d8"/><path d="M51.329 74.897c-4.57 0-9.14-.1-13.7.06-2.23.08-3.7-.57-4.33-2.77.21-5.4-.41-10.78-.77-16.15-.19-2.88.23-5.82-.66-8.64-.22-7.66.99-15.13 2.96-22.5 2.61-7.39 5.95-14.39 11.05-20.42 1.52-1.8 2.8-3.98 5.42-4.47l.04 23.4c-5.48.51-8.85 3.98-8.74 8.99.1 4.4 3.68 7.73 8.76 8.15l-.03 34.35z" fill="#cccfd2"/><path d="M51.329 74.897l.04-34.35-.03-.16c4.67-.08 8.22-3.52 8.38-8.14.16-4.58-3.39-8.25-8.4-8.68l.04-.16-.04-23.4c1.09-.09 1.59.78 2.23 1.4 6.76 6.58 10.87 14.72 13.81 23.54 2.35 7.31 3.23 14.81 2.99 22.47l-1.47 24.46c-.14 2.12-1.31 3.06-3.39 3.04l-14.16-.02z" fill="#eaeef0"/><path d="M31.859 47.397c.89 2.83.46 5.76.66 8.64.36 5.37.98 10.75.77 16.15l-8.46 6.17c-.95.71-1.87 1.05-2.99.54-1.13-.52-1.51-1.46-1.5-2.64.15-11.1 3.77-20.81 11.52-28.86z" fill="#2084d3"/><path d="M68.859 71.866l1.47-24.46c6.1 5.84 9.3 13.18 10.97 21.31.49 2.37.58 4.77.61 7.19.02 1.26-.29 2.3-1.49 2.91-1.13.57-2.08.16-3-.52l-8.56-6.43z" fill="#2497f2"/><path d="M51.34 113.306c-1.45.28-2.16-.68-2.72-1.73-3.02-5.74-6.07-11.48-7.8-17.78-1.86-6.76 3.46-13.45 10.52-13.3v32.81z" fill="#de8502"/><path d="M51.339 113.306V80.507c6.97.12 11.83 6.29 10.15 13.04-1.63 6.57-4.96 12.42-8 18.39-.42.82-1.06 1.5-2.15 1.37z" fill="#fe9903"/><path d="M51.359 40.546c-5.08-.42-8.66-3.75-8.76-8.15-.11-5.01 3.26-8.47 8.74-8.99l-.04.16.02 16.82.04.16z" fill="#1f84d4"/><path d="M51.329 40.397l-.02-16.82c5.01.43 8.57 4.1 8.4 8.68-.16 4.61-3.7 8.05-8.38 8.14z" fill="#2497f2"/></svg>